<?xml version="1.0" standalone="no"?>
<!DOCTYPE svg PUBLIC "-//W3C//DTD SVG 20010904//EN"
 "http://www.w3.org/TR/2001/REC-SVG-20010904/DTD/svg10.dtd">
<svg version="1.0" xmlns="http://www.w3.org/2000/svg"
 width="560.000000pt" height="560.000000pt" viewBox="0 0 560.000000 560.000000"
 preserveAspectRatio="xMidYMid meet">
<metadata>
Created by potrace 1.14, written by Peter Selinger 2001-2017
</metadata>
<g transform="translate(0.000000,560.000000) scale(0.100000,-0.100000)"
fill="#000000" stroke="none">
<path d="M2560 5514 c-224 -38 -354 -84 -505 -178 l-39 -24 -41 22 c-124 68
-263 107 -365 102 -102 -6 -117 -12 -135 -59 -50 -133 -24 -366 62 -558 l28
-62 -22 -68 c-26 -78 -49 -178 -59 -264 -4 -41 -14 -69 -30 -88 -13 -15 -26
-42 -29 -60 -3 -18 -5 -180 -3 -360 l3 -329 25 -20 c15 -12 34 -18 52 -16 15
3 28 3 28 2 0 -2 -10 -20 -22 -41 -22 -36 -23 -48 -23 -253 0 -181 3 -220 16
-245 26 -46 74 -92 116 -110 58 -25 68 -31 68 -41 3 -38 21 -122 42 -189 90
-286 268 -507 525 -652 l68 -38 0 -182 0 -183 -92 -1 c-371 -2 -706 -137 -976
-394 -307 -292 -452 -638 -452 -1075 l0 -150 2000 0 2001 0 -2 158 c-1 86 -7
193 -14 237 -55 335 -196 602 -441 835 -155 147 -335 254 -534 318 -162 53
-271 70 -442 71 l-88 1 0 184 c0 175 1 185 20 191 79 25 311 218 398 331 100
130 177 318 218 532 3 13 12 25 22 28 40 12 88 41 115 69 58 60 62 75 65 269
4 210 0 252 -33 300 l-24 36 22 -4 c35 -5 73 13 86 40 14 32 15 644 1 693 -5
19 -18 44 -29 55 -11 13 -21 43 -25 76 -12 101 -38 218 -62 277 -20 46 -18 63
15 135 89 193 108 410 49 561 -13 34 -39 41 -148 41 -99 0 -194 -26 -311 -84
l-77 -37 -48 30 c-90 56 -215 109 -332 139 -113 30 -125 31 -367 34 -137 1
-261 0 -275 -2z"/>
</g>
</svg>
